<svg xmlns="http://www.w3.org/2000/svg" xmlns:xlink="http://www.w3.org/1999/xlink" viewBox="0,0,256,256" width="48px" height="48px" fill-rule="nonzero"><g fill="#ffffff" fill-rule="nonzero" stroke="none" stroke-width="1" stroke-linecap="butt" stroke-linejoin="miter" stroke-miterlimit="10" stroke-dasharray="" stroke-dashoffset="0" font-family="none" font-weight="none" font-size="none" text-anchor="none" style="mix-blend-mode: normal"><g transform="scale(5.33333,5.33333)"><path d="M36.5,12h-7.086l3.793,-3.793c0.391,-0.391 0.391,-1.023 0,-1.414c-0.391,-0.391 -1.023,-0.391 -1.414,0l-5.207,5.207h-5.172l-5.207,-5.207c-0.391,-0.391 -1.023,-0.391 -1.414,0c-0.391,0.391 -0.391,1.023 0,1.414l3.793,3.793h-6.086c-3.033,0 -5.5,2.467 -5.5,5.5v15c0,3.033 2.467,5.5 5.5,5.5h2c0,0.829 0.671,1.5 1.5,1.5c0.829,0 1.5,-0.671 1.5,-1.5h14c0,0.829 0.671,1.5 1.5,1.5c0.829,0 1.5,-0.671 1.5,-1.5h2c3.033,0 5.5,-2.467 5.5,-5.5v-15c0,-3.033 -2.467,-5.5 -5.5,-5.5zM39,32.5c0,1.378 -1.122,2.5 -2.5,2.5h-24c-1.378,0 -2.5,-1.122 -2.5,-2.5v-15c0,-1.378 1.122,-2.5 2.5,-2.5h24c1.378,0 2.5,1.122 2.5,2.5z"></path><rect x="-12.1287" y="33.77846" transform="rotate(-71.567)" width="2.75" height="7.075"></rect><rect x="6.58471" y="25.18713" transform="rotate(-18.432)" width="7.075" height="2.75"></rect><path d="M28.033,27.526c-0.189,0.593 -0.644,0.896 -1.326,0.896c-0.076,-0.013 -0.139,-0.013 -0.24,-0.025c-0.013,0 -0.05,-0.013 -0.063,0c-0.341,-0.05 -0.745,-0.177 -1.061,-0.467c-0.366,-0.265 -0.808,-0.745 -0.947,-1.477c0,0 -0.29,1.174 -0.896,1.49c-0.076,0.05 -0.164,0.114 -0.253,0.164l-0.038,0.025c-0.303,0.164 -0.682,0.265 -1.086,0.278c-0.568,-0.051 -0.947,-0.328 -1.136,-0.821l-0.063,-0.164l-1.427,0.656l0.05,0.139c0.467,1.124 1.465,1.768 2.74,1.768c0.922,0 1.667,-0.303 2.209,-0.909c0.556,0.606 1.288,0.909 2.209,0.909c1.856,0 2.55,-1.288 2.765,-1.843l0.051,-0.126l-1.427,-0.657z"></path></g></g></svg>